<svg xmlns="http://www.w3.org/2000/svg" viewBox="0 0 1920 480"><defs>
<linearGradient id="main" x1="0" y1="0" x2="1" y2="1">
<stop offset="0" stop-color="#07153E"/><stop offset="0.16" stop-color="#0D1F68"/>
<stop offset="0.30" stop-color="#2563EB"/><stop offset="0.48" stop-color="#F8FAFC"/>
<stop offset="0.70" stop-color="#EEF6FF"/><stop offset="1" stop-color="#7DB5FF"/></linearGradient>
<linearGradient id="inner" x1="0.05" y1="0.1" x2="0.95" y2="0.8">
<stop offset="0" stop-color="#0A1B59"/><stop offset="0.38" stop-color="#163FA9"/>
<stop offset="0.75" stop-color="#2563EB"/><stop offset="1" stop-color="#60A5FA"/></linearGradient>
<filter id="glow" x="-40%" y="-40%" width="180%" height="180%"><feGaussianBlur stdDeviation="5" result="b"/><feMerge><feMergeNode in="b"/><feMergeNode in="SourceGraphic"/></feMerge></filter>
<filter id="lineGlow" x="-50%" y="-50%" width="200%" height="200%"><feGaussianBlur stdDeviation="7" result="b"/><feMerge><feMergeNode in="b"/><feMergeNode in="SourceGraphic"/></feMerge></filter>
</defs><rect width="1920" height="480" fill="#0B0F14"/><path d="M 1190 494 Q 1498 264 1978 278" fill="none" stroke="#4F8EFF" stroke-width="3" filter="url(#lineGlow)" opacity=".95"/><g transform="translate(67.2 110.0) scale(1.0156)"><path d="M20 218 C38 183 56 147 74 111 L105 49 C111 37 123 30 137 30 H154 C168 30 179 38 185 51 L236 218 H202 C189 218 180 211 175 199 L140 111 C135 99 127 92 116 92 C105 92 96 99 90 111 C96 131 104 151 111 171 C119 192 112 208 98 215 C94 217 89 218 83 218 Z" fill="url(#main)" filter="url(#glow)"/><path d="M20 218 C39 181 57 145 76 114 C88 95 102 86 118 85 C133 84 146 91 154 103 C159 110 162 117 163 123 L137 141 C133 134 127 130 120 128 C112 126 104 129 99 135 Z" fill="url(#inner)" filter="url(#glow)"/></g><path d="M366.2 225.6H375.04999999999995L380.15 211.0875H402.68749999999994L407.6375 225.6H416.67499999999995L396.53749999999997 169.725H386.48749999999995ZM382.66249999999997 204.0 386.15 194.1C387.68749999999994 189.4875 389.29999999999995 184.575 391.54999999999995 177.3375C393.7625 184.575 395.3375 189.4875 396.87499999999994 194.1L400.24999999999994 204.0Z" fill="#F8FAFC"/><path d="M433.1645 225.6H441.48949999999996V204.45H453.86449999999996C453.977 204.45 454.12699999999995 204.45 454.23949999999996 204.45L465.37699999999995 225.6H474.75199999999995L462.67699999999996 203.0625C469.65199999999993 200.54999999999998 473.88949999999994 194.925 473.88949999999994 187.125C473.88949999999994 176.4375 466.38949999999994 169.725 454.42699999999996 169.725H433.1645ZM441.48949999999996 197.36249999999998V176.925H454.05199999999996C461.25199999999995 176.925 465.67699999999996 180.825 465.67699999999996 187.125C465.67699999999996 193.425 461.2895 197.36249999999998 454.08949999999993 197.36249999999998Z" fill="#F8FAFC"/><path d="M516.929 226.5C529.1165 226.5 538.5664999999999 218.9625 540.4789999999999 207.075H532.0414999999999C530.279 214.65 524.579 218.8875 517.0039999999999 218.8875C505.9789999999999 218.8875 499.2289999999999 210.3375 499.2289999999999 197.7C499.2289999999999 184.9875 505.9789999999999 176.4375 517.0039999999999 176.4375C524.6165 176.4375 530.3539999999999 180.7125 532.0039999999999 188.325H540.4789999999999C538.529 176.4 529.1165 168.825 516.929 168.825C501.4789999999999 168.825 490.8665 180.4875 490.8665 197.7C490.8665 214.79999999999998 501.51649999999995 226.5 516.929 226.5Z" fill="#F8FAFC"/><path d="M559.256 225.6H594.0184999999999V218.2875H567.5809999999999V169.725H559.256Z" fill="#F8FAFC"/><path d="M633.5704999999999 226.5C646.9954999999999 226.5 655.7705 218.1375 655.7705 206.475V169.725H647.483V205.79999999999998C647.483 213.45 642.1954999999999 218.9625 633.5704999999999 218.9625C624.983 218.9625 619.6954999999999 213.45 619.6954999999999 205.79999999999998V169.725H611.4079999999999V206.475C611.4079999999999 218.1375 620.1455 226.5 633.5704999999999 226.5Z" fill="#F8FAFC"/><path d="M676.4599999999999 225.6H684.6724999999999V195.15C684.6724999999999 191.3625 684.5224999999999 186.0375 684.4099999999999 180.975C686.435 186.75 688.31 192.075 689.4724999999999 195.15L701.3599999999999 225.6H708.185L719.9599999999999 195.15C721.1599999999999 191.9625 723.0724999999999 186.2625 725.1349999999999 180.1875C725.0224999999999 185.475 724.8725 191.175 724.8725 195.15V225.6H733.0474999999999V169.725H721.2724999999999L708.935 202.4625C707.9599999999999 205.3125 706.1225 210.6 704.8474999999999 214.4625C703.5724999999999 210.6 701.7349999999999 205.3125 700.7224999999999 202.4625L688.1974999999999 169.725H676.4599999999999Z" fill="#F8FAFC"/><path d="M753.9994999999999 225.6H791.5744999999998V218.2875H762.3244999999998V200.73749999999998H789.3994999999999V193.5H762.3244999999998V177.0375H791.5744999999998V169.725H753.9994999999999Z" fill="#F8FAFC"/><path d="M365.85781249999997 297.6H368.28124999999994L370.21484374999994 292.21171875000005H378.23281249999997L380.11484375 297.6H382.58984374999994L375.57734374999995 278.39296875H372.94765624999997ZM370.94960937499997 290.14921875000005 372.43203124999997 286.02421875000005C372.92187499999994 284.67070312500005 373.43749999999994 283.12382812500005 374.2625 280.571484375C375.0875 283.12382812500005 375.603125 284.67070312500005 376.08007812499994 286.02421875000005L377.52382812499997 290.14921875000005Z" fill="#D6DEEA"/><path d="M384.871875 297.6H387.06328125V289.22109375C387.06328125 286.91367187500003 388.365234375 285.89531250000005 389.87343749999997 285.89531250000005C390.50507812499995 285.89531250000005 391.03359374999997 285.9984375 391.21406249999995 286.05V283.85859375C391.03359374999997 283.83281250000005 390.685546875 283.78125 390.2859375 283.78125C388.58437499999997 283.78125 387.514453125 284.72226562500003 387.01171875 286.12734375H386.96015624999995V283.9875H384.871875Z" fill="#D6DEEA"/><path d="M399.4 297.909375C402.46796874999995 297.909375 404.76249999999993 295.846875 405.136328125 293.16562500000003H402.88046875C402.45507812499994 294.828515625 401.43671874999995 295.92421875 399.4 295.92421875C396.821875 295.92421875 395.30078124999994 293.91328125 395.30078124999994 290.81953125C395.30078124999994 287.70000000000005 396.83476562499993 285.66328125 399.4 285.66328125C401.41093749999993 285.66328125 402.59687499999995 286.8234375 402.91914062499995 288.421875H405.136328125C404.76249999999993 285.676171875 402.49375 283.678125 399.4 283.678125C395.62304687499994 283.678125 393.08359375 286.64296875 393.08359375 290.81953125C393.08359375 294.97031250000003 395.62304687499994 297.909375 399.4 297.909375Z" fill="#D6DEEA"/><path d="M410.17695312499995 278.39296875H407.98554687499995V297.6H410.17695312499995Z" fill="#D6DEEA"/><path d="M418.82695312499993 297.8578125C420.5542968749999 297.8578125 421.93359374999994 297.148828125 422.8746093749999 295.601953125V297.6H425.01445312499993V283.9875H422.82304687499993V291.95390625000005C422.82304687499993 294.699609375 421.22460937499994 295.846875 419.23945312499995 295.846875C417.2027343749999 295.846875 416.01679687499995 294.64804687500003 416.01679687499995 292.2890625V283.9875H413.82539062499995V292.44375C413.82539062499995 296.06601562500003 416.08124999999995 297.8578125 418.82695312499993 297.8578125Z" fill="#D6DEEA"/><path d="M428.66289062499993 297.6H430.85429687499993V289.29843750000003C430.85429687499993 286.95234375 432.4269531249999 285.740625 434.14140624999993 285.740625C435.7914062499999 285.740625 437.0160156249999 286.8234375 437.0160156249999 288.44765625V297.6H439.2074218749999V288.9375C439.2074218749999 287.094140625 440.4191406249999 285.740625 442.4171874999999 285.740625C443.9769531249999 285.740625 445.36914062499994 286.565625 445.36914062499994 288.6796875V297.6H447.56054687499994V288.6796875C447.56054687499994 285.328125 445.5238281249999 283.7296875 443.03593749999993 283.7296875C441.0121093749999 283.7296875 439.49101562499993 284.78671875000003 438.7433593749999 286.17890625C438.1761718749999 284.8125 436.7066406249999 283.7296875 434.8374999999999 283.7296875C433.17460937499993 283.7296875 431.6664062499999 284.59335937500003 430.80273437499994 286.191796875V283.9875H428.66289062499993Z" fill="#D6DEEA"/><path d="M456.82929687499995 297.909375C459.79414062499995 297.909375 462.11445312499995 296.13046875000003 462.63007812499995 293.5265625H460.43867187499995C460.02617187499993 294.94453125 458.76289062499995 295.92421875 456.82929687499995 295.92421875C454.25117187499995 295.92421875 452.7816406249999 294.09375 452.67851562499993 291.42539062500003H462.86210937499993V290.81953125C462.86210937499993 286.59140625000003 460.4644531249999 283.678125 456.67460937499993 283.678125C453.06523437499993 283.678125 450.51289062499995 286.681640625 450.51289062499995 290.81953125C450.51289062499995 294.91875000000005 452.83320312499995 297.909375 456.82929687499995 297.909375ZM452.70429687499995 289.543359375C452.93632812499993 287.145703125 454.44453124999995 285.63750000000005 456.67460937499993 285.63750000000005C458.9175781249999 285.63750000000005 460.43867187499995 287.145703125 460.67070312499993 289.543359375Z" fill="#D6DEEA"/><path d="M478.70546874999997 283.9875H475.9468749999999V280.27500000000003H473.7554687499999V283.9875H471.33203124999994V285.86953125H473.7554687499999V294.53203125000005C473.7554687499999 296.58164062500003 474.90273437499997 297.6 477.2359374999999 297.6H478.70546874999997V295.71796875H477.44218749999993C476.32070312499997 295.71796875 475.9468749999999 295.35703125000003 475.9468749999999 294.3V285.86953125H478.70546874999997Z" fill="#D6DEEA"/><path d="M486.37578124999993 297.8578125C488.1031249999999 297.8578125 489.48242187499994 297.148828125 490.4234374999999 295.601953125V297.6H492.56328124999993V283.9875H490.37187499999993V291.95390625000005C490.37187499999993 294.699609375 488.77343749999994 295.846875 486.78828124999995 295.846875C484.7515624999999 295.846875 483.56562499999995 294.64804687500003 483.56562499999995 292.2890625V283.9875H481.37421874999995V292.44375C481.37421874999995 296.06601562500003 483.63007812499995 297.8578125 486.37578124999993 297.8578125Z" fill="#D6DEEA"/><path d="M496.21171874999993 297.6H498.40312499999993V289.22109375C498.40312499999993 286.91367187500003 499.70507812499994 285.89531250000005 501.2132812499999 285.89531250000005C501.8449218749999 285.89531250000005 502.3734374999999 285.9984375 502.5539062499999 286.05V283.85859375C502.3734374999999 283.83281250000005 502.02539062499994 283.78125 501.62578124999993 283.78125C499.9242187499999 283.78125 498.85429687499993 284.72226562500003 498.35156249999994 286.12734375H498.2999999999999V283.9875H496.21171874999993Z" fill="#D6DEEA"/><path d="M507.3109374999999 289.63359375000005C507.3109374999999 286.887890625 508.9093749999999 285.740625 510.8945312499999 285.740625C512.9312499999999 285.740625 514.1171874999999 286.939453125 514.1171874999999 289.29843750000003V297.6H516.3085937499999V289.14375C516.3085937499999 285.521484375 514.0527343749999 283.7296875 511.3070312499999 283.7296875C509.5796874999999 283.7296875 508.2003906249999 284.438671875 507.2593749999999 285.985546875V283.9875H505.1195312499999V297.6H507.3109374999999Z" fill="#D6DEEA"/><path d="M524.70078125 297.909375C527.665625 297.909375 529.9085937499999 296.4140625 529.9085937499999 293.88750000000005C529.9085937499999 291.928125 528.7226562499999 290.72929687500005 526.11875 290.110546875L523.92734375 289.594921875C522.6125 289.285546875 521.8132812499999 288.6796875 521.8132812499999 287.6484375C521.8132812499999 286.48828125 522.8832031249999 285.56015625000003 524.5589843749999 285.56015625000003C526.312109375 285.56015625000003 527.4335937499999 286.6171875 527.4593749999999 288.0609375H529.59921875C529.5218749999999 285.35390625 527.3949218749999 283.678125 524.5589843749999 283.678125C521.645703125 283.678125 519.6218749999999 285.328125 519.6218749999999 287.6484375C519.6218749999999 289.63359375000005 520.93671875 290.92265625000005 523.4632812499999 291.515625L525.6546874999999 292.03125C526.86640625 292.31484375 527.704296875 292.90781250000003 527.704296875 293.93906250000003C527.704296875 295.15078125 526.5312499999999 296.02734375 524.6492187499999 296.02734375C522.74140625 296.02734375 521.6328124999999 295.15078125 521.478125 293.5265625H519.3124999999999C519.4929687499999 296.49140625 521.7874999999999 297.909375 524.70078125 297.909375Z" fill="#D6DEEA"/><path d="M545.50703125 297.909375C548.5749999999999 297.909375 550.8695312499999 295.846875 551.243359375 293.16562500000003H548.9875C548.562109375 294.828515625 547.5437499999999 295.92421875 545.50703125 295.92421875C542.92890625 295.92421875 541.4078125 293.91328125 541.4078125 290.81953125C541.4078125 287.70000000000005 542.9417968749999 285.66328125 545.50703125 285.66328125C547.5179687499999 285.66328125 548.7039062499999 286.8234375 549.0261718749999 288.421875H551.243359375C550.8695312499999 285.676171875 548.60078125 283.678125 545.50703125 283.678125C541.730078125 283.678125 539.190625 286.64296875 539.190625 290.81953125C539.190625 294.97031250000003 541.730078125 297.909375 545.50703125 297.909375Z" fill="#D6DEEA"/><path d="M559.712890625 297.909375C563.48984375 297.909375 566.029296875 294.97031250000003 566.029296875 290.81953125C566.029296875 286.64296875 563.48984375 283.678125 559.712890625 283.678125C555.9359375 283.678125 553.396484375 286.64296875 553.396484375 290.81953125C553.396484375 294.97031250000003 555.9359375 297.909375 559.712890625 297.909375ZM559.712890625 295.92421875C557.134765625 295.92421875 555.613671875 293.91328125 555.613671875 290.81953125C555.613671875 287.70000000000005 557.14765625 285.66328125 559.712890625 285.66328125C562.2781249999999 285.66328125 563.812109375 287.712890625 563.812109375 290.81953125C563.812109375 293.900390625 562.291015625 295.92421875 559.712890625 295.92421875Z" fill="#D6DEEA"/><path d="M568.981640625 297.6H571.173046875V289.29843750000003C571.173046875 286.95234375 572.745703125 285.740625 574.46015625 285.740625C576.11015625 285.740625 577.334765625 286.8234375 577.334765625 288.44765625V297.6H579.526171875V288.9375C579.526171875 287.094140625 580.737890625 285.740625 582.7359375 285.740625C584.295703125 285.740625 585.687890625 286.565625 585.687890625 288.6796875V297.6H587.879296875V288.6796875C587.879296875 285.328125 585.842578125 283.7296875 583.3546875 283.7296875C581.330859375 283.7296875 579.809765625 284.78671875000003 579.062109375 286.17890625C578.494921875 284.8125 577.025390625 283.7296875 575.15625 283.7296875C573.493359375 283.7296875 571.98515625 284.59335937500003 571.121484375 286.191796875V283.9875H568.981640625Z" fill="#D6DEEA"/><path d="M591.5277343749999 302.98828125H593.7191406249999V295.5375H593.7449218749999C594.724609375 297.11015625000005 596.2328124999999 297.8578125 597.9988281249999 297.8578125C601.5437499999999 297.8578125 603.9027343749999 294.98320312500005 603.9027343749999 290.79375000000005C603.9027343749999 286.59140625000003 601.5437499999999 283.7296875 597.9988281249999 283.7296875C596.2328124999999 283.7296875 594.569921875 284.47734375000005 593.693359375 285.9984375H593.667578125V283.9875H591.5277343749999ZM597.663671875 295.88554687500005C595.1371093749999 295.88554687500005 593.538671875 293.87460937500003 593.538671875 290.79375000000005C593.538671875 287.712890625 595.1371093749999 285.68906250000003 597.663671875 285.68906250000003C600.02265625 285.68906250000003 601.685546875 287.455078125 601.685546875 290.79375000000005C601.685546875 294.13242187500003 600.02265625 295.88554687500005 597.663671875 295.88554687500005Z" fill="#D6DEEA"/><path d="M609.0464843749999 278.39296875H606.8550781249999V297.6H609.0464843749999Z" fill="#D6DEEA"/><path d="M618.3152343749999 297.909375C621.2800781249999 297.909375 623.6003906249999 296.13046875000003 624.1160156249999 293.5265625H621.9246093749999C621.5121093749999 294.94453125 620.2488281249999 295.92421875 618.3152343749999 295.92421875C615.7371093749999 295.92421875 614.2675781249999 294.09375 614.1644531249999 291.42539062500003H624.3480468749999V290.81953125C624.3480468749999 286.59140625000003 621.950390625 283.678125 618.1605468749999 283.678125C614.5511718749999 283.678125 611.9988281249999 286.681640625 611.9988281249999 290.81953125C611.9988281249999 294.91875000000005 614.3191406249999 297.909375 618.3152343749999 297.909375ZM614.1902343749999 289.543359375C614.4222656249999 287.145703125 615.9304687499999 285.63750000000005 618.1605468749999 285.63750000000005C620.403515625 285.63750000000005 621.9246093749999 287.145703125 622.1566406249999 289.543359375Z" fill="#D6DEEA"/><path d="M626.0113281249999 297.6H628.5636718749998L630.7550781249998 294.50625C631.2835937499999 293.74570312500003 631.8121093749999 292.998046875 632.3277343749999 292.2375C632.8433593749999 292.998046875 633.3589843749999 293.74570312500003 633.8874999999998 294.50625L636.0531249999999 297.6H638.6183593749998L633.6039062499999 290.65195312500003L638.3863281249999 283.9875H635.8468749999998L633.9777343749998 286.66875000000005C633.4234374999999 287.46796875 632.8820312499998 288.254296875 632.3406249999998 289.05351562500005C631.8121093749999 288.254296875 631.2835937499999 287.46796875 630.7292968749998 286.66875000000005L628.8859374999998 283.9875H626.3078124999998L631.0902343749999 290.66484375000005Z" fill="#D6DEEA"/><path d="M648.0292968749998 302.98828125H650.2207031249998V295.5375H650.2464843749998C651.2261718749999 297.11015625000005 652.7343749999998 297.8578125 654.5003906249998 297.8578125C658.0453124999998 297.8578125 660.4042968749998 294.98320312500005 660.4042968749998 290.79375000000005C660.4042968749998 286.59140625000003 658.0453124999998 283.7296875 654.5003906249998 283.7296875C652.7343749999998 283.7296875 651.0714843749998 284.47734375000005 650.1949218749999 285.9984375H650.1691406249998V283.9875H648.0292968749998ZM654.1652343749998 295.88554687500005C651.6386718749998 295.88554687500005 650.0402343749998 293.87460937500003 650.0402343749998 290.79375000000005C650.0402343749998 287.712890625 651.6386718749998 285.68906250000003 654.1652343749998 285.68906250000003C656.5242187499998 285.68906250000003 658.1871093749999 287.455078125 658.1871093749999 290.79375000000005C658.1871093749999 294.13242187500003 656.5242187499998 295.88554687500005 654.1652343749998 295.88554687500005Z" fill="#D6DEEA"/><path d="M663.3566406249997 297.6H665.5480468749997V289.22109375C665.5480468749997 286.91367187500003 666.8499999999998 285.89531250000005 668.3582031249998 285.89531250000005C668.9898437499997 285.89531250000005 669.5183593749998 285.9984375 669.6988281249997 286.05V283.85859375C669.5183593749998 283.83281250000005 669.1703124999998 283.78125 668.7707031249997 283.78125C667.0691406249998 283.78125 665.9992187499997 284.72226562500003 665.4964843749998 286.12734375H665.4449218749997V283.9875H663.3566406249997Z" fill="#D6DEEA"/><path d="M677.8847656249998 297.909375C681.6617187499997 297.909375 684.2011718749998 294.97031250000003 684.2011718749998 290.81953125C684.2011718749998 286.64296875 681.6617187499997 283.678125 677.8847656249998 283.678125C674.1078124999998 283.678125 671.5683593749998 286.64296875 671.5683593749998 290.81953125C671.5683593749998 294.97031250000003 674.1078124999998 297.909375 677.8847656249998 297.909375ZM677.8847656249998 295.92421875C675.3066406249998 295.92421875 673.7855468749998 293.91328125 673.7855468749998 290.81953125C673.7855468749998 287.70000000000005 675.3195312499997 285.66328125 677.8847656249998 285.66328125C680.4499999999997 285.66328125 681.9839843749997 287.712890625 681.9839843749997 290.81953125C681.9839843749997 293.900390625 680.4628906249998 295.92421875 677.8847656249998 295.92421875Z" fill="#D6DEEA"/><path d="M687.1535156249997 283.9875V299.17265625000005C687.1535156249997 300.4875 686.6636718749997 301.0546875 685.5550781249998 301.0546875H684.8074218749998V302.98828125H685.7613281249997C688.0558593749997 302.98828125 689.3449218749997 301.48007812500003 689.3449218749997 299.5078125V283.9875ZM688.2492187499997 281.33203125C689.0742187499998 281.33203125 689.7445312499998 280.66171875000003 689.7445312499998 279.83671875000005C689.7445312499998 279.01171875 689.0742187499998 278.34140625000003 688.2492187499997 278.34140625000003C687.4242187499998 278.34140625000003 686.7539062499998 279.01171875 686.7539062499998 279.83671875000005C686.7539062499998 280.66171875000003 687.4242187499998 281.33203125 688.2492187499997 281.33203125Z" fill="#D6DEEA"/><path d="M698.6136718749998 297.909375C701.5785156249998 297.909375 703.8988281249998 296.13046875000003 704.4144531249998 293.5265625H702.2230468749998C701.8105468749998 294.94453125 700.5472656249998 295.92421875 698.6136718749998 295.92421875C696.0355468749998 295.92421875 694.5660156249997 294.09375 694.4628906249998 291.42539062500003H704.6464843749998V290.81953125C704.6464843749998 286.59140625000003 702.2488281249998 283.678125 698.4589843749998 283.678125C694.8496093749998 283.678125 692.2972656249998 286.681640625 692.2972656249998 290.81953125C692.2972656249998 294.91875000000005 694.6175781249998 297.909375 698.6136718749998 297.909375ZM694.4886718749998 289.543359375C694.7207031249998 287.145703125 696.2289062499998 285.63750000000005 698.4589843749998 285.63750000000005C700.7019531249998 285.63750000000005 702.2230468749998 287.145703125 702.4550781249998 289.543359375Z" fill="#D6DEEA"/><path d="M713.1675781249997 297.909375C716.2355468749997 297.909375 718.5300781249997 295.846875 718.9039062499997 293.16562500000003H716.6480468749997C716.2226562499998 294.828515625 715.2042968749997 295.92421875 713.1675781249997 295.92421875C710.5894531249997 295.92421875 709.0683593749998 293.91328125 709.0683593749998 290.81953125C709.0683593749998 287.70000000000005 710.6023437499997 285.66328125 713.1675781249997 285.66328125C715.1785156249997 285.66328125 716.3644531249997 286.8234375 716.6867187499997 288.421875H718.9039062499997C718.5300781249997 285.676171875 716.2613281249997 283.678125 713.1675781249997 283.678125C709.3906249999998 283.678125 706.8511718749997 286.64296875 706.8511718749997 290.81953125C706.8511718749997 294.97031250000003 709.3906249999998 297.909375 713.1675781249997 297.909375Z" fill="#D6DEEA"/><path d="M727.6957031249998 283.9875H724.9371093749997V280.27500000000003H722.7457031249997V283.9875H720.3222656249998V285.86953125H722.7457031249997V294.53203125000005C722.7457031249997 296.58164062500003 723.8929687499998 297.6 726.2261718749997 297.6H727.6957031249998V295.71796875H726.4324218749998C725.3109374999998 295.71796875 724.9371093749997 295.35703125000003 724.9371093749997 294.3V285.86953125H727.6957031249998Z" fill="#D6DEEA"/><path d="M735.1082031249998 297.909375C738.0730468749998 297.909375 740.3160156249997 296.4140625 740.3160156249997 293.88750000000005C740.3160156249997 291.928125 739.1300781249997 290.72929687500005 736.5261718749998 290.110546875L734.3347656249998 289.594921875C733.0199218749998 289.285546875 732.2207031249998 288.6796875 732.2207031249998 287.6484375C732.2207031249998 286.48828125 733.2906249999997 285.56015625000003 734.9664062499997 285.56015625000003C736.7195312499998 285.56015625000003 737.8410156249997 286.6171875 737.8667968749997 288.0609375H740.0066406249998C739.9292968749997 285.35390625 737.8023437499997 283.678125 734.9664062499997 283.678125C732.0531249999998 283.678125 730.0292968749998 285.328125 730.0292968749998 287.6484375C730.0292968749998 289.63359375000005 731.3441406249998 290.92265625000005 733.8707031249997 291.515625L736.0621093749997 292.03125C737.2738281249998 292.31484375 738.1117187499998 292.90781250000003 738.1117187499998 293.93906250000003C738.1117187499998 295.15078125 736.9386718749997 296.02734375 735.0566406249998 296.02734375C733.1488281249998 296.02734375 732.0402343749997 295.15078125 731.8855468749998 293.5265625H729.7199218749997C729.9003906249998 296.49140625 732.1949218749997 297.909375 735.1082031249998 297.909375Z" fill="#D6DEEA"/><path d="M750.2941406249997 297.6H752.4855468749997V283.9875H750.2941406249997ZM751.3898437499997 281.33203125C752.2148437499998 281.33203125 752.8851562499998 280.66171875000003 752.8851562499998 279.83671875000005C752.8851562499998 279.01171875 752.2148437499998 278.34140625000003 751.3898437499997 278.34140625000003C750.5648437499998 278.34140625000003 749.8945312499998 279.01171875 749.8945312499998 279.83671875000005C749.8945312499998 280.66171875000003 750.5648437499998 281.33203125 751.3898437499997 281.33203125Z" fill="#D6DEEA"/><path d="M758.3253906249997 289.63359375000005C758.3253906249997 286.887890625 759.9238281249998 285.740625 761.9089843749998 285.740625C763.9457031249998 285.740625 765.1316406249998 286.939453125 765.1316406249998 289.29843750000003V297.6H767.3230468749998V289.14375C767.3230468749998 285.521484375 765.0671874999998 283.7296875 762.3214843749997 283.7296875C760.5941406249998 283.7296875 759.2148437499998 284.438671875 758.2738281249998 285.985546875V283.9875H756.1339843749997V297.6H758.3253906249997Z" fill="#D6DEEA"/><path d="M776.9140624999998 283.9875H774.1554687499997V280.27500000000003H771.9640624999997V283.9875H769.5406249999997V285.86953125H771.9640624999997V294.53203125000005C771.9640624999997 296.58164062500003 773.1113281249998 297.6 775.4445312499997 297.6H776.9140624999998V295.71796875H775.6507812499998C774.5292968749998 295.71796875 774.1554687499997 295.35703125000003 774.1554687499997 294.3V285.86953125H776.9140624999998Z" fill="#D6DEEA"/><path d="M785.2031249999998 297.909375C788.9800781249997 297.909375 791.5195312499998 294.97031250000003 791.5195312499998 290.81953125C791.5195312499998 286.64296875 788.9800781249997 283.678125 785.2031249999998 283.678125C781.4261718749998 283.678125 778.8867187499998 286.64296875 778.8867187499998 290.81953125C778.8867187499998 294.97031250000003 781.4261718749998 297.909375 785.2031249999998 297.909375ZM785.2031249999998 295.92421875C782.6249999999998 295.92421875 781.1039062499998 293.91328125 781.1039062499998 290.81953125C781.1039062499998 287.70000000000005 782.6378906249997 285.66328125 785.2031249999998 285.66328125C787.7683593749997 285.66328125 789.3023437499997 287.712890625 789.3023437499997 290.81953125C789.3023437499997 293.900390625 787.7812499999998 295.92421875 785.2031249999998 295.92421875Z" fill="#D6DEEA"/><path d="M807.0921874999998 297.909375C810.1601562499998 297.909375 812.4546874999997 295.846875 812.8285156249998 293.16562500000003H810.5726562499998C810.1472656249998 294.828515625 809.1289062499998 295.92421875 807.0921874999998 295.92421875C804.5140624999998 295.92421875 802.9929687499998 293.91328125 802.9929687499998 290.81953125C802.9929687499998 287.70000000000005 804.5269531249997 285.66328125 807.0921874999998 285.66328125C809.1031249999997 285.66328125 810.2890624999998 286.8234375 810.6113281249998 288.421875H812.8285156249998C812.4546874999997 285.676171875 810.1859374999998 283.678125 807.0921874999998 283.678125C803.3152343749998 283.678125 800.7757812499998 286.64296875 800.7757812499998 290.81953125C800.7757812499998 294.97031250000003 803.3152343749998 297.909375 807.0921874999998 297.909375Z" fill="#D6DEEA"/><path d="M817.8691406249998 278.39296875H815.6777343749998V297.6H817.8691406249998Z" fill="#D6DEEA"/><path d="M827.1378906249998 297.909375C830.1027343749998 297.909375 832.4230468749998 296.13046875000003 832.9386718749998 293.5265625H830.7472656249998C830.3347656249998 294.94453125 829.0714843749998 295.92421875 827.1378906249998 295.92421875C824.5597656249998 295.92421875 823.0902343749998 294.09375 822.9871093749998 291.42539062500003H833.1707031249998V290.81953125C833.1707031249998 286.59140625000003 830.7730468749999 283.678125 826.9832031249998 283.678125C823.3738281249998 283.678125 820.8214843749998 286.681640625 820.8214843749998 290.81953125C820.8214843749998 294.91875000000005 823.1417968749998 297.909375 827.1378906249998 297.909375ZM823.0128906249998 289.543359375C823.2449218749998 287.145703125 824.7531249999998 285.63750000000005 826.9832031249998 285.63750000000005C829.2261718749999 285.63750000000005 830.7472656249998 287.145703125 830.9792968749998 289.543359375Z" fill="#D6DEEA"/><path d="M840.2222656249997 297.80625000000003C842.6972656249998 297.80625000000003 843.7671874999997 296.64609375000003 844.2699218749998 295.66640625H844.3214843749997V297.6H846.4871093749998V288.21562500000005C846.4871093749998 285.521484375 844.4761718749997 283.7296875 841.3050781249998 283.7296875C838.0824218749998 283.7296875 835.8781249999997 285.57304687500005 835.7621093749998 288.0609375H837.9921874999998C838.0953124999997 286.707421875 839.4101562499998 285.66328125 841.3050781249998 285.66328125C843.2128906249998 285.66328125 844.3214843749997 286.73320312500005 844.3214843749997 288.21562500000005V288.34453125000005C844.3214843749997 289.388671875 843.4835937499997 289.285546875 840.8925781249998 289.63359375000005C838.1597656249997 289.99453125 835.4785156249998 290.56171875 835.4785156249998 293.68125000000003C835.4785156249998 296.40117187500005 837.5152343749997 297.80625000000003 840.2222656249997 297.80625000000003ZM840.5316406249998 295.846875C838.7914062499998 295.846875 837.7214843749998 295.086328125 837.7214843749998 293.81015625000003C837.7214843749998 292.27617187500005 839.2167968749998 291.734765625 840.7894531249998 291.515625C842.3492187499997 291.29648437500003 843.9863281249998 291.05156250000005 844.3214843749997 290.7421875V292.44375C844.3214843749997 294.22265625 843.2128906249998 295.846875 840.5316406249998 295.846875Z" fill="#D6DEEA"/><path d="M850.1355468749997 297.6H852.3269531249997V289.22109375C852.3269531249997 286.91367187500003 853.6289062499998 285.89531250000005 855.1371093749998 285.89531250000005C855.7687499999997 285.89531250000005 856.2972656249998 285.9984375 856.4777343749997 286.05V283.85859375C856.2972656249998 283.83281250000005 855.9492187499998 283.78125 855.5496093749997 283.78125C853.8480468749998 283.78125 852.7781249999997 284.72226562500003 852.2753906249998 286.12734375H852.2238281249997V283.9875H850.1355468749997Z" fill="#D6DEEA"/><path d="M870.0652343749997 297.6H872.2824218749997L877.5417968749997 283.9875H875.2085937499997L872.3082031249997 291.82500000000005C871.9214843749997 292.869140625 871.5734374999997 293.91328125 871.2124999999997 294.957421875C870.8644531249997 293.91328125 870.5035156249997 292.869140625 870.1167968749997 291.82500000000005L867.1777343749998 283.9875H864.8058593749997Z" fill="#D6DEEA"/><path d="M879.9527343749996 297.6H882.1441406249996V283.9875H879.9527343749996ZM881.0484374999996 281.33203125C881.8734374999997 281.33203125 882.5437499999997 280.66171875000003 882.5437499999997 279.83671875000005C882.5437499999997 279.01171875 881.8734374999997 278.34140625000003 881.0484374999996 278.34140625000003C880.2234374999997 278.34140625000003 879.5531249999997 279.01171875 879.5531249999997 279.83671875000005C879.5531249999997 280.66171875000003 880.2234374999997 281.33203125 881.0484374999996 281.33203125Z" fill="#D6DEEA"/><path d="M890.5363281249997 297.909375C893.5011718749997 297.909375 895.7441406249997 296.4140625 895.7441406249997 293.88750000000005C895.7441406249997 291.928125 894.5582031249996 290.72929687500005 891.9542968749997 290.110546875L889.7628906249997 289.594921875C888.4480468749997 289.285546875 887.6488281249997 288.6796875 887.6488281249997 287.6484375C887.6488281249997 286.48828125 888.7187499999997 285.56015625000003 890.3945312499997 285.56015625000003C892.1476562499997 285.56015625000003 893.2691406249996 286.6171875 893.2949218749997 288.0609375H895.4347656249997C895.3574218749997 285.35390625 893.2304687499997 283.678125 890.3945312499997 283.678125C887.4812499999997 283.678125 885.4574218749997 285.328125 885.4574218749997 287.6484375C885.4574218749997 289.63359375000005 886.7722656249997 290.92265625000005 889.2988281249997 291.515625L891.4902343749997 292.03125C892.7019531249997 292.31484375 893.5398437499997 292.90781250000003 893.5398437499997 293.93906250000003C893.5398437499997 295.15078125 892.3667968749996 296.02734375 890.4847656249997 296.02734375C888.5769531249997 296.02734375 887.4683593749996 295.15078125 887.3136718749997 293.5265625H885.1480468749996C885.3285156249997 296.49140625 887.6230468749997 297.909375 890.5363281249997 297.909375Z" fill="#D6DEEA"/><path d="M903.7238281249997 297.8578125C905.4511718749997 297.8578125 906.8304687499997 297.148828125 907.7714843749997 295.601953125V297.6H909.9113281249997V283.9875H907.7199218749997V291.95390625000005C907.7199218749997 294.699609375 906.1214843749997 295.846875 904.1363281249996 295.846875C902.0996093749997 295.846875 900.9136718749996 294.64804687500003 900.9136718749996 292.2890625V283.9875H898.7222656249996V292.44375C898.7222656249996 296.06601562500003 900.9781249999996 297.8578125 903.7238281249997 297.8578125Z" fill="#D6DEEA"/><path d="M917.7105468749996 297.80625000000003C920.1855468749997 297.80625000000003 921.2554687499996 296.64609375000003 921.7582031249997 295.66640625H921.8097656249996V297.6H923.9753906249997V288.21562500000005C923.9753906249997 285.521484375 921.9644531249996 283.7296875 918.7933593749997 283.7296875C915.5707031249997 283.7296875 913.3664062499996 285.57304687500005 913.2503906249997 288.0609375H915.4804687499997C915.5835937499996 286.707421875 916.8984374999997 285.66328125 918.7933593749997 285.66328125C920.7011718749997 285.66328125 921.8097656249996 286.73320312500005 921.8097656249996 288.21562500000005V288.34453125000005C921.8097656249996 289.388671875 920.9718749999996 289.285546875 918.3808593749997 289.63359375000005C915.6480468749996 289.99453125 912.9667968749997 290.56171875 912.9667968749997 293.68125000000003C912.9667968749997 296.40117187500005 915.0035156249996 297.80625000000003 917.7105468749996 297.80625000000003ZM918.0199218749997 295.846875C916.2796874999997 295.846875 915.2097656249997 295.086328125 915.2097656249997 293.81015625000003C915.2097656249997 292.27617187500005 916.7050781249997 291.734765625 918.2777343749997 291.515625C919.8374999999996 291.29648437500003 921.4746093749997 291.05156250000005 921.8097656249996 290.7421875V292.44375C921.8097656249996 294.22265625 920.7011718749997 295.846875 918.0199218749997 295.846875Z" fill="#D6DEEA"/><path d="M929.8152343749996 278.39296875H927.6238281249996V297.6H929.8152343749996Z" fill="#D6DEEA"/><path d="M942.6550781249996 289.63359375000005C942.6550781249996 286.887890625 944.2535156249996 285.740625 946.2386718749997 285.740625C948.2753906249997 285.740625 949.4613281249997 286.939453125 949.4613281249997 289.29843750000003V297.6H951.6527343749997V289.14375C951.6527343749997 285.521484375 949.3968749999997 283.7296875 946.6511718749996 283.7296875C944.9238281249997 283.7296875 943.5445312499996 284.438671875 942.6035156249997 285.985546875V283.9875H940.4636718749996V297.6H942.6550781249996Z" fill="#D6DEEA"/><path d="M959.4519531249996 297.80625000000003C961.9269531249996 297.80625000000003 962.9968749999996 296.64609375000003 963.4996093749996 295.66640625H963.5511718749996V297.6H965.7167968749997V288.21562500000005C965.7167968749997 285.521484375 963.7058593749996 283.7296875 960.5347656249996 283.7296875C957.3121093749996 283.7296875 955.1078124999996 285.57304687500005 954.9917968749996 288.0609375H957.2218749999996C957.3249999999996 286.707421875 958.6398437499996 285.66328125 960.5347656249996 285.66328125C962.4425781249996 285.66328125 963.5511718749996 286.73320312500005 963.5511718749996 288.21562500000005V288.34453125000005C963.5511718749996 289.388671875 962.7132812499996 289.285546875 960.1222656249996 289.63359375000005C957.3894531249996 289.99453125 954.7082031249996 290.56171875 954.7082031249996 293.68125000000003C954.7082031249996 296.40117187500005 956.7449218749996 297.80625000000003 959.4519531249996 297.80625000000003ZM959.7613281249996 295.846875C958.0210937499996 295.846875 956.9511718749997 295.086328125 956.9511718749997 293.81015625000003C956.9511718749997 292.27617187500005 958.4464843749996 291.734765625 960.0191406249996 291.515625C961.5789062499996 291.29648437500003 963.2160156249996 291.05156250000005 963.5511718749996 290.7421875V292.44375C963.5511718749996 294.22265625 962.4425781249996 295.846875 959.7613281249996 295.846875Z" fill="#D6DEEA"/><path d="M969.3652343749995 297.6H971.5566406249995V289.22109375C971.5566406249995 286.91367187500003 972.8585937499996 285.89531250000005 974.3667968749996 285.89531250000005C974.9984374999996 285.89531250000005 975.5269531249996 285.9984375 975.7074218749996 286.05V283.85859375C975.5269531249996 283.83281250000005 975.1789062499996 283.78125 974.7792968749995 283.78125C973.0777343749996 283.78125 972.0078124999995 284.72226562500003 971.5050781249996 286.12734375H971.4535156249996V283.9875H969.3652343749995Z" fill="#D6DEEA"/><path d="M978.2730468749995 297.6H980.4644531249995V289.22109375C980.4644531249995 286.91367187500003 981.7664062499996 285.89531250000005 983.2746093749996 285.89531250000005C983.9062499999995 285.89531250000005 984.4347656249996 285.9984375 984.6152343749995 286.05V283.85859375C984.4347656249996 283.83281250000005 984.0867187499996 283.78125 983.6871093749995 283.78125C981.9855468749996 283.78125 980.9156249999995 284.72226562500003 980.4128906249996 286.12734375H980.3613281249995V283.9875H978.2730468749995Z" fill="#D6DEEA"/><path d="M991.3316406249995 297.80625000000003C993.8066406249995 297.80625000000003 994.8765624999995 296.64609375000003 995.3792968749996 295.66640625H995.4308593749995V297.6H997.5964843749996V288.21562500000005C997.5964843749996 285.521484375 995.5855468749995 283.7296875 992.4144531249996 283.7296875C989.1917968749996 283.7296875 986.9874999999995 285.57304687500005 986.8714843749996 288.0609375H989.1015624999995C989.2046874999995 286.707421875 990.5195312499995 285.66328125 992.4144531249996 285.66328125C994.3222656249995 285.66328125 995.4308593749995 286.73320312500005 995.4308593749995 288.21562500000005V288.34453125000005C995.4308593749995 289.388671875 994.5929687499995 289.285546875 992.0019531249995 289.63359375000005C989.2691406249995 289.99453125 986.5878906249995 290.56171875 986.5878906249995 293.68125000000003C986.5878906249995 296.40117187500005 988.6246093749995 297.80625000000003 991.3316406249995 297.80625000000003ZM991.6410156249996 295.846875C989.9007812499996 295.846875 988.8308593749996 295.086328125 988.8308593749996 293.81015625000003C988.8308593749996 292.27617187500005 990.3261718749995 291.734765625 991.8988281249996 291.515625C993.4585937499995 291.29648437500003 995.0957031249995 291.05156250000005 995.4308593749995 290.7421875V292.44375C995.4308593749995 294.22265625 994.3222656249995 295.846875 991.6410156249996 295.846875Z" fill="#D6DEEA"/><path d="M1007.1874999999995 283.9875H1004.4289062499995V280.27500000000003H1002.2374999999995V283.9875H999.8140624999995V285.86953125H1002.2374999999995V294.53203125000005C1002.2374999999995 296.58164062500003 1003.3847656249995 297.6 1005.7179687499995 297.6H1007.1874999999995V295.71796875H1005.9242187499996C1004.8027343749995 295.71796875 1004.4289062499995 295.35703125000003 1004.4289062499995 294.3V285.86953125H1007.1874999999995Z" fill="#D6DEEA"/><path d="M1009.8562499999995 297.6H1012.0476562499995V283.9875H1009.8562499999995ZM1010.9519531249995 281.33203125C1011.7769531249995 281.33203125 1012.4472656249995 280.66171875000003 1012.4472656249995 279.83671875000005C1012.4472656249995 279.01171875 1011.7769531249995 278.34140625000003 1010.9519531249995 278.34140625000003C1010.1269531249995 278.34140625000003 1009.4566406249995 279.01171875 1009.4566406249995 279.83671875000005C1009.4566406249995 280.66171875000003 1010.1269531249995 281.33203125 1010.9519531249995 281.33203125Z" fill="#D6DEEA"/><path d="M1019.7179687499995 297.6H1021.9351562499995L1027.1945312499995 283.9875H1024.8613281249995L1021.9609374999995 291.82500000000005C1021.5742187499995 292.869140625 1021.2261718749995 293.91328125 1020.8652343749995 294.957421875C1020.5171874999995 293.91328125 1020.1562499999995 292.869140625 1019.7695312499995 291.82500000000005L1016.8304687499996 283.9875H1014.4585937499995Z" fill="#D6DEEA"/><path d="M1035.2257812499995 297.909375C1038.1906249999995 297.909375 1040.5109374999995 296.13046875000003 1041.0265624999995 293.5265625H1038.8351562499995C1038.4226562499996 294.94453125 1037.1593749999995 295.92421875 1035.2257812499995 295.92421875C1032.6476562499995 295.92421875 1031.1781249999997 294.09375 1031.0749999999996 291.42539062500003H1041.2585937499996V290.81953125C1041.2585937499996 286.59140625000003 1038.8609374999996 283.678125 1035.0710937499996 283.678125C1031.4617187499996 283.678125 1028.9093749999995 286.681640625 1028.9093749999995 290.81953125C1028.9093749999995 294.91875000000005 1031.2296874999995 297.909375 1035.2257812499995 297.909375ZM1031.1007812499995 289.543359375C1031.3328124999996 287.145703125 1032.8410156249995 285.63750000000005 1035.0710937499996 285.63750000000005C1037.3140624999996 285.63750000000005 1038.8351562499995 287.145703125 1039.0671874999996 289.543359375Z" fill="#D6DEEA"/><path d="M1048.9031249999996 297.909375C1051.8679687499996 297.909375 1054.1109374999996 296.4140625 1054.1109374999996 293.88750000000005C1054.1109374999996 291.928125 1052.9249999999995 290.72929687500005 1050.3210937499996 290.110546875L1048.1296874999996 289.594921875C1046.8148437499995 289.285546875 1046.0156249999995 288.6796875 1046.0156249999995 287.6484375C1046.0156249999995 286.48828125 1047.0855468749996 285.56015625000003 1048.7613281249996 285.56015625000003C1050.5144531249996 285.56015625000003 1051.6359374999995 286.6171875 1051.6617187499996 288.0609375H1053.8015624999996C1053.7242187499996 285.35390625 1051.5972656249996 283.678125 1048.7613281249996 283.678125C1045.8480468749995 283.678125 1043.8242187499995 285.328125 1043.8242187499995 287.6484375C1043.8242187499995 289.63359375000005 1045.1390624999995 290.92265625000005 1047.6656249999996 291.515625L1049.8570312499996 292.03125C1051.0687499999995 292.31484375 1051.9066406249995 292.90781250000003 1051.9066406249995 293.93906250000003C1051.9066406249995 295.15078125 1050.7335937499995 296.02734375 1048.8515624999995 296.02734375C1046.9437499999995 296.02734375 1045.8351562499995 295.15078125 1045.6804687499996 293.5265625H1043.5148437499995C1043.6953124999995 296.49140625 1045.9898437499996 297.909375 1048.9031249999996 297.909375Z" fill="#D6DEEA"/><path d="M1058.3652343749995 297.81914062500005C1059.2675781249995 297.81914062500005 1059.9765624999995 297.11015625000005 1059.9765624999995 296.20781250000005C1059.9765624999995 295.30546875000005 1059.2675781249995 294.59648437500005 1058.3652343749995 294.59648437500005C1057.4628906249995 294.59648437500005 1056.7539062499995 295.30546875000005 1056.7539062499995 296.20781250000005C1056.7539062499995 297.11015625000005 1057.4628906249995 297.81914062500005 1058.3652343749995 297.81914062500005Z" fill="#D6DEEA"/></svg>